<?xml version="1.0" ?><svg viewBox="0 0 512 512" xmlns="http://www.w3.org/2000/svg"><title/><g id="Pitbull"><path d="M183.0752,243.9146a14.4171,14.4171,0,0,0-14.4,14.4v10.139a14.4,14.4,0,0,0,28.8,0v-10.139A14.417,14.417,0,0,0,183.0752,243.9146Z"/><path d="M328.9252,243.9146a14.4171,14.4171,0,0,0-14.4,14.4v10.139a14.4,14.4,0,1,0,28.8,0v-10.139A14.417,14.417,0,0,0,328.9252,243.9146Z"/><path d="M388.899,176.1915c-.0027-.0765.0121-.1492.0065-.2265-.6282-8.7047-5.5188-54.1985-40.0922-95.1172a16.6682,16.6682,0,0,0-12.736-5.9313,16.3026,16.3026,0,0,0-12.375,5.7,176.2607,176.2607,0,0,0-33.6794,62.12H221.977A176.2578,176.2578,0,0,0,188.2977,80.615a16.3055,16.3055,0,0,0-12.375-5.6985,16.672,16.672,0,0,0-12.736,5.93c-34.5734,40.92-39.464,86.4141-40.0922,95.1188-.0056.0773.0092.15.0065.2265-.003.08-.0237.1539-.0237.2344V354.46a49.2072,49.2072,0,0,0,22.3047,41.2812l19.4008,12.7125a43.0064,43.0064,0,0,0,15.2524,20.3031,43.4656,43.4656,0,0,0,38.7906,6.2657l37.175-11.9063,37.175,11.9063a43.4543,43.4543,0,0,0,38.7906-6.2657,43.0064,43.0064,0,0,0,15.2524-20.3031L366.62,395.7415A49.21,49.21,0,0,0,388.9227,354.46V176.4259C388.9227,176.3454,388.902,176.2712,388.899,176.1915ZM249.6008,411.7259l-34.6781,11.1094c-19.4463,6.2181-39.8891-8.7144-39.8891-29.1094V378.7415a81.0936,81.0936,0,0,1,60.6719-78.37L247.1539,315.01a11.1863,11.1863,0,0,0,2.4469,2.2433Zm87.3672-18a30.5652,30.5652,0,0,1-39.8891,29.1094l-34.6781-11.1094V317.2525a11.1837,11.1837,0,0,0,2.4437-2.2422l11.4508-14.6391a81.0935,81.0935,0,0,1,60.6727,78.37ZM376.1227,354.46a36.4467,36.4467,0,0,1-16.5188,30.575l-9.8359,6.4453V378.7415a93.9162,93.9162,0,0,0-67.3332-89.9469,11.2032,11.2032,0,0,0-11.2184-11.3875H240.7836a11.2,11.2,0,0,0-11.217,11.3875,93.9161,93.9161,0,0,0-67.333,89.9469v12.7391l-9.8359-6.4453a36.4443,36.4443,0,0,1-16.52-30.575V176.6677c.6393-8.484,5.33-49.9738,37.0875-87.5606a3.8918,3.8918,0,0,1,2.97-1.3906,3.45,3.45,0,0,1,2.6,1.1781,162.8453,162.8453,0,0,1,30.0066,53.8422h-2.141a82.9972,82.9972,0,0,0-29.7594,5.4735,6.4,6.4,0,1,0,4.5719,11.9562,70.231,70.231,0,0,1,25.1875-4.63h99.2a70.2314,70.2314,0,0,1,25.1875,4.63,6.4675,6.4675,0,0,0,8.264-3.6922,6.4014,6.4014,0,0,0-3.6921-8.264,82.998,82.998,0,0,0-29.7594-5.4735h-2.1424a162.8247,162.8247,0,0,1,30.0064-53.8406,3.4652,3.4652,0,0,1,2.6-1.18,3.8881,3.8881,0,0,1,2.97,1.3922c31.7574,37.5852,36.4482,79.075,37.0875,87.559Z"/></g></svg>