<!DOCTYPE svg PUBLIC "-//W3C//DTD SVG 1.1//EN" "http://www.w3.org/Graphics/SVG/1.1/DTD/svg11.dtd">
<!-- Uploaded to: SVG Repo, www.svgrepo.com, Transformed by: SVG Repo Mixer Tools -->
<svg fill="#000000" version="1.1" id="Capa_1" xmlns="http://www.w3.org/2000/svg" xmlns:xlink="http://www.w3.org/1999/xlink" width="256px" height="256px" viewBox="-390.13 -390.13 1170.39 1170.39" xml:space="preserve" stroke="#000000" stroke-width="0.00390126" transform="matrix(1, 0, 0, 1, 0, 0)rotate(0)">
<g id="SVGRepo_bgCarrier" stroke-width="0">
<path transform="translate(-390.13, -390.13), scale(36.5746875)" d="M16,31.513875544071198C19.093129738138355,30.70322159708499,20.218785764649745,27.008047888435012,22.14157374270071,24.453151062693735C23.4363606419881,22.73270815543469,24.55188000319866,21.035223097479,25.38150656631592,19.048236263734385C26.29304977107312,16.865055991111003,27.824984701130152,14.643227671283956,27.188952536950904,12.364488940529506C26.547532285798987,10.066446087812714,23.998246029209195,9.041914498788763,22.163040027570837,7.517303130911339C20.165377747157432,5.857729971724177,18.50543022827241,3.753035911936502,16,3.069181374377674C12.962235753187583,2.2400268280748272,9.442165679461347,1.6264043896527758,6.7879387616195075,3.3206854612197976C4.102674059005851,5.034778980203718,2.870593055731514,8.466188857253496,2.5758835156068027,11.638240149695811C2.313582604424873,14.46146719545534,4.568773802449678,16.737984029025437,5.286511017269714,19.481023585863312C6.074080432538614,22.49094701637673,4.90053820393228,26.105804706452755,6.969443350060033,28.42949490476809C9.137737235026245,30.86481353549083,12.845810108542917,32.340532264455845,16,31.513875544071198" fill="#7ed0ec" strokewidth="0"/>
</g>
<g id="SVGRepo_tracerCarrier" stroke-linecap="round" stroke-linejoin="round"/>
<g id="SVGRepo_iconCarrier"> <g> <g> <path d="M132.64,177.859c31.162,0,56.508-34.014,56.508-75.834c0-41.817-25.347-75.841-56.508-75.841 c-31.153,0-56.502,34.023-56.502,75.841C76.138,143.845,101.487,177.859,132.64,177.859z"/> <path d="M300.246,251.628c-1.159-1.579-2.27-3.068-2.864-4.348c-12.635-27.046-47.27-58.931-103.382-59.724l-2.159-0.012 c-55.25,0-89.627,30.197-103.381,58.469c-0.475,0.967-1.52,2.222-2.627,3.549c-1.31,1.555-2.606,3.146-3.714,4.875 c-11.619,18.075-17.543,38.426-16.669,57.299c0.916,20.037,9.305,36.131,23.581,45.312c5.768,3.705,11.992,5.572,18.522,5.572 c13.465,0,25.793-7.584,40.079-16.368c9.083-5.598,18.465-11.374,28.886-15.697c1.168-0.385,5.954-0.973,13.781-0.973 c9.307,0,15.991,0.828,17.419,1.321c10.173,4.491,19.107,10.382,27.748,16.068c13.247,8.731,25.755,16.97,39.326,16.97 c5.824,0,11.469-1.537,16.795-4.563c29.382-16.693,34.979-62.492,12.484-102.088C302.942,255.303,301.597,253.448,300.246,251.628 z"/> <path d="M252.796,177.859c31.147,0,56.499-34.014,56.499-75.834c0-41.817-25.352-75.841-56.499-75.841 c-31.165,0-56.511,34.023-56.511,75.841C196.285,143.845,221.631,177.859,252.796,177.859z"/> <path d="M345.595,138.918c-24.975,0-44.521,25.901-44.521,58.967c0,33.051,19.558,58.955,44.521,58.955 c24.961,0,44.531-25.904,44.531-58.955C390.126,164.82,370.568,138.918,345.595,138.918z"/> <path d="M89.048,197.885c0-33.065-19.558-58.967-44.522-58.967C19.561,138.918,0,164.82,0,197.885 c0,33.051,19.561,58.955,44.526,58.955C69.491,256.84,89.048,230.936,89.048,197.885z"/> </g> </g> </g>
</svg>